<svg xmlns="http://www.w3.org/2000/svg" width="375" height="119.828" viewBox="0 0 375 119.828">
  <g id="Group_1" data-name="Group 1" transform="translate(0 -693.172)">
    <g id="Path_4" data-name="Path 4" transform="translate(0 695)" fill="rgba(19,17,17,0.95)" opacity="0.3">
      <path d="M 374.5003051757812 117.5000381469727 L 0.5000025629997253 117.5000381469727 L 0.5000025629997253 0.4285630583763123 C 2.67440390586853 0.104305699467659 13.22373580932617 -1.327912330627441 29.8321533203125 -1.327912330627441 C 41.97725296020508 -1.327912330627441 54.63365173339844 -0.5757123827934265 67.44980621337891 0.9078876376152039 C 83.69155120849609 2.787937641143799 100.1742553710938 5.848687648773193 116.4401550292969 10.00508785247803 C 148.3955078125 18.1705379486084 170.6656494140625 29.64553833007812 192.2026062011719 40.7427864074707 C 216.7154083251953 53.37338638305664 239.8688049316406 65.30348968505859 274.4210510253906 70.63563537597656 C 283.0121154785156 71.96144104003906 291.5737915039062 72.63343811035156 299.8682556152344 72.63304138183594 C 325.0406494140625 72.6318359375 344.204345703125 66.42784118652344 355.8481140136719 61.22353744506836 C 362.4454956054688 58.27473831176758 367.3832397460938 55.32633590698242 370.3637390136719 53.37218856811523 C 372.3220825195312 52.08823776245117 373.700927734375 51.06625366210938 374.5003051757812 50.44581985473633 L 374.5003051757812 117.5000381469727 Z" stroke="none"/>
      <path d="M 29.83224487304688 -0.8279647827148438 C 14.15383911132812 -0.8279647827148438 3.890655517578125 0.4505538940429688 1 0.861114501953125 L 1 116.9999847412109 L 374.0003051757812 116.9999847412109 L 374.0003051757812 51.45248413085938 C 373.18212890625 52.06024932861328 372.0608520507812 52.85763168334961 370.6379089355469 53.7906379699707 C 367.64208984375 55.75498580932617 362.6798095703125 58.71838760375977 356.0520935058594 61.68083953857422 C 344.3639526367188 66.90528869628906 325.1288146972656 73.13304138183594 299.8682556152344 73.13304138183594 C 291.5455932617188 73.13304138183594 282.958251953125 72.45903778076172 274.3447875976562 71.12979125976562 C 239.7120971679688 65.78523254394531 216.5236053466797 53.8370361328125 191.9736022949219 41.18728637695312 C 170.4613952636719 30.10279083251953 148.216796875 18.64093780517578 116.31640625 10.48948669433594 C 100.0722045898438 6.33868408203125 83.61181640625 3.282035827636719 67.39236450195312 1.404541015625 C 54.59524536132812 -0.07686614990234375 41.95819091796875 -0.8279647827148438 29.83224487304688 -0.8279647827148438 M 29.832275390625 -1.82794189453125 C 50.50625610351562 -1.82794189453125 80.714599609375 0.3601455688476562 116.56396484375 9.520637512207031 C 185.1882476806641 27.05598449707031 209.8881530761719 60.17093658447266 274.497314453125 70.14148712158203 C 283.5238037109375 71.53446960449219 291.9822692871094 72.13304901123047 299.8682250976562 72.13304901123047 C 348.4276733398438 72.13304901123047 375.0003051757812 49.40278625488281 375.0003051757812 49.40278625488281 L 375.0003051757812 117.9999847412109 L 0 117.9999847412109 L 0 -1.52587890625e-05 C 0 -1.52587890625e-05 10.93121337890625 -1.82794189453125 29.832275390625 -1.82794189453125 Z" stroke="none" fill="#eae5e5"/>
    </g>
  </g>
</svg>
